<?xml version="1.0" standalone="no"?>
<!DOCTYPE svg PUBLIC "-//W3C//DTD SVG 20010904//EN"
 "http://www.w3.org/TR/2001/REC-SVG-20010904/DTD/svg10.dtd">
<svg version="1.0" xmlns="http://www.w3.org/2000/svg"
 width="30.000000pt" height="30.000000pt" viewBox="0 0 30.000000 30.000000"
 preserveAspectRatio="xMidYMid meet">

<g transform="translate(0.000000,30.000000) scale(0.100000,-0.100000)"
fill="#000000" stroke="none">
<path d="M64 229 c-3 -6 9 -26 27 -45 l33 -34 -27 -28 c-49 -51 -26 -74 25
-25 l28 27 28 -27 c50 -48 74 -26 26 24 l-27 28 32 37 c23 26 29 40 22 47 -8
8 -21 1 -45 -22 l-35 -34 -36 32 c-40 35 -41 35 -51 20z"/>
</g>
</svg>
